<?xml version="1.0" encoding="utf-8"?>
<!-- Generator: Adobe Illustrator 23.0.3, SVG Export Plug-In . SVG Version: 6.00 Build 0)  -->
<svg version="1.1" id="Слой_2" xmlns="http://www.w3.org/2000/svg" xmlns:xlink="http://www.w3.org/1999/xlink" x="0px" y="0px"
	 viewBox="0 0 164.4 51.1" style="enable-background:new 0 0 164.4 51.1;" xml:space="preserve">
<style type="text/css">
	.st0{fill-rule:evenodd;clip-rule:evenodd;fill:#004B8D;}
</style>
<g>
	<path class="st0" d="M122.4,14.6c-0.1-0.8-0.4-1.6-0.9-2.2c-0.4-0.5-1-1-1.6-1.2c-0.7-0.2-1.4-0.3-2.1-0.1c-0.8,0.1-1.5,0.5-2.2,1
		c-0.4,0.3-0.7,0.7-1,1.2l0,0l0,0c-0.4-0.4-0.8-0.7-1.3-0.8c-0.7-0.2-1.4-0.3-2.1-0.1c-0.7,0.1-1.4,0.5-2,0.9
		c-0.2,0.2-0.4,0.4-0.6,0.7c0,0,0,0,0,0l0.6,3.2c-0.2-0.7,0-1.4,0.3-1.9c0.3-0.6,0.9-0.9,1.6-1c0.6-0.1,1.2,0,1.7,0.3
		c0.5,0.4,0.9,1,1,1.7l1.1,5.6c0.1,0.6,0.7,0.9,1.2,0.8c0.3-0.1,0.5-0.2,0.6-0.4h0c0.1-0.2,0.2-0.5,0.1-0.8l-0.9-4.8l-0.2-1.5
		c0-0.4,0.1-0.9,0.4-1.2c0.7-1.1,2.1-1.4,3.2-0.7c0.5,0.4,0.9,1,1,1.7l1.1,5.6c0.1,0.6,0.7,0.9,1.2,0.8c0.3-0.1,0.5-0.2,0.6-0.4l0,0
		c0.1-0.2,0.2-0.5,0.1-0.8L122.4,14.6z"/>
	<path class="st0" d="M134.3,17.5L134.3,17.5c0.7-0.7,1.1-1.5,1.3-2.4c0.4-2-0.2-4.1-1.6-5.5c-0.7-0.7-1.5-1.1-2.4-1.3
		c-2-0.4-4,0.2-5.5,1.6c-0.7,0.7-1.1,1.5-1.3,2.4c-0.4,2,0.2,4.1,1.6,5.5c0.7,0.7,1.5,1.1,2.4,1.3C130.7,19.5,132.8,18.9,134.3,17.5
		z M126.8,14.6c-0.2-0.6-0.2-1.3-0.1-2c0.1-0.6,0.4-1.2,0.8-1.6c0.9-0.9,2.3-1.3,3.5-1c0.6,0.2,1.1,0.5,1.6,0.9
		c0.5,0.5,0.8,1.1,1,1.7c0.2,0.6,0.2,1.3,0.1,2c-0.1,0.6-0.4,1.2-0.8,1.6c-0.9,0.9-2.3,1.3-3.5,1l0,0c-0.6-0.2-1.1-0.5-1.6-0.9
		C127.3,15.9,126.9,15.3,126.8,14.6z"/>
	<path class="st0" d="M28.2,14.2l8.8-9c0.4-0.3,0.5-0.8,0.2-1.1C37.1,4,37,3.9,37,3.9c-0.3-0.4-0.9-0.4-1.3-0.1c0,0-0.1,0.1-0.1,0.1
		l-6.7,6.8l0,0l-0.3,0.3L26.4,0.8c0-0.5-0.5-0.8-0.9-0.8c-0.1,0-0.1,0-0.2,0c-0.5,0-0.8,0.4-0.8,0.9c0,0.1,0,0.2,0,0.2l2.6,11.4
		l0.9-0.9l-0.9,0.9l0,0l-0.3,0.3c-0.4,0.4-0.9,0.8-1.4,1c-0.4,0.2-0.8,0.2-1.2,0.1c-0.1,0-0.2-0.1-0.3-0.1c-0.1-0.1-0.2-0.1-0.3-0.2
		c-0.2-0.2-0.5-0.4-0.7-0.4c-0.3,0-0.5,0-0.7,0.2c-0.2,0.2-0.3,0.4-0.4,0.6c0,0.3,0.1,0.5,0.2,0.7c0.4,0.5,0.9,0.9,1.5,1.1
		c0.8,0.2,1.6,0.2,2.3-0.1C26.7,15.4,27.5,14.9,28.2,14.2z M28.9,13.1L28.9,13.1L28.9,13.1L28.9,13.1z"/>
	<path class="st0" d="M75.9,13c1.2,0.5,2.5,0.6,3.7,0.1l0,0c0.5-0.2,1-0.5,1.3-0.9c0.3-0.4,0.5-0.9,0.5-1.4c0-0.3-0.1-0.5-0.2-0.7
		c-0.2-0.2-0.4-0.3-0.6-0.3c-0.2,0-0.5,0.1-0.6,0.3c-0.2,0.2-0.3,0.4-0.3,0.7c0,0.4-0.2,0.7-0.6,0.8c-0.8,0.4-1.8,0.4-2.6-0.1
		C76.2,11.3,76,11,76,10.6c0-0.3-0.1-0.5-0.2-0.7c-0.2-0.2-0.4-0.3-0.6-0.3c-0.2,0-0.5,0.1-0.7,0.3c-0.2,0.2-0.3,0.4-0.3,0.7
		c0,0.5,0.1,1,0.4,1.4C75,12.4,75.4,12.7,75.9,13z"/>
	<path class="st0" d="M85.6,25.6c0.1,0.1,0.3,0.3,0.4,0.4c0.1,0.2,0.2,0.4,0.2,0.6c0,0.3-0.1,0.6-0.2,0.8c-0.1,0.2-0.3,0.4-0.4,0.6
		c-0.1,0.2-0.2,0.4-0.2,0.7c0,0.1,0.1,0.3,0.1,0.4c0.1,0.1,0.2,0.2,0.4,0.2c0.3,0,0.6-0.2,0.7-0.4l0,0c0.3-0.3,0.5-0.6,0.7-1
		c0.2-0.4,0.4-0.9,0.5-1.3c0.1-0.4,0.2-0.9,0.2-1.3c0-0.5-0.2-1-0.4-1.4c-0.3-0.3-0.7-0.5-1.2-0.5c-0.4,0-0.7,0.1-1,0.4
		c-0.2,0.2-0.4,0.6-0.3,0.9c0,0.2,0.1,0.4,0.2,0.6C85.3,25.4,85.5,25.5,85.6,25.6z"/>
	<path class="st0" d="M36.4,10.7c-0.1,0.2-0.1,0.4,0.1,0.6c0.2,0.2,0.4,0.4,0.6,0.4c0.3,0,0.5,0,0.8-0.2c0.4-0.2,0.8-0.4,1.3-0.4
		c0.5,0,1.1,0,1.6,0.2c0.6,0.1,1.1,0.4,1.5,0.8c0.3,0.3,0.4,0.7,0.3,1.1c-0.1,0.4-0.3,0.7-0.6,0.9c-0.3,0.2-0.7,0.3-1.1,0.2L39.8,14
		c-0.3-0.1-0.5-0.1-0.8,0c-0.2,0.1-0.4,0.2-0.4,0.5c-0.1,0.2,0,0.5,0.1,0.6c0.2,0.2,0.4,0.4,0.7,0.4l1.1,0.3c0.4,0.1,0.8,0.3,1,0.7
		c0.2,0.3,0.3,0.7,0.2,1.1c-0.1,0.5-0.5,0.9-0.9,1c-0.6,0.2-1.2,0.2-1.8,0c-0.6-0.1-1.1-0.4-1.5-0.7c-0.4-0.3-0.7-0.6-1-1
		c-0.1-0.2-0.4-0.4-0.6-0.5c-0.2-0.1-0.5-0.1-0.8,0c-0.2,0.1-0.4,0.3-0.5,0.6c-0.1,0.3,0,0.5,0.1,0.8c0.3,0.4,0.6,0.7,0.9,1
		c0.4,0.4,0.8,0.7,1.3,0.9c0.5,0.3,1.1,0.5,1.7,0.6c0.7,0.2,1.5,0.2,2.3,0.1l0,0c0.7-0.1,1.3-0.4,1.8-0.8c0.5-0.4,0.8-0.9,1-1.5
		c0.1-0.5,0.1-0.9-0.1-1.4c-0.2-0.4-0.5-0.8-0.8-1.2c-0.2-0.2-0.4-0.3-0.7-0.4l0,0v0c0.2,0,0.4,0,0.6,0c0.4-0.1,0.8-0.3,1.2-0.5
		c0.3-0.3,0.6-0.7,0.7-1.1c0.1-0.5,0.1-1.1-0.1-1.6c-0.3-0.6-0.7-1.1-1.2-1.5c-0.6-0.5-1.3-0.8-2-0.9c-0.8-0.2-1.5-0.2-2.3-0.1
		c-0.7,0.1-1.4,0.3-2,0.7C36.7,10.2,36.5,10.4,36.4,10.7z"/>
	<path class="st0" d="M53.5,22.4c-0.1,0.5,0.2,1.1,0.8,1.2c0,0,0,0,0.1,0c0.3,0.1,0.5,0,0.8-0.2l0,0c0.2-0.2,0.3-0.4,0.4-0.7
		l1.6-8.8c0.1-0.3,0-0.5-0.1-0.8c-0.2-0.2-0.4-0.4-0.7-0.4c-0.3-0.1-0.5,0-0.8,0.1c-0.2,0.2-0.4,0.4-0.4,0.7l-0.5,3l0,0L54.5,17
		l-6.1-1.1l-0.3,1.8l6.1,1.1L53.5,22.4z"/>
	<path class="st0" d="M81.8,14.9c0,0-0.1,0-0.1,0c-0.3,0-0.5,0.1-0.7,0.3c-0.2,0.2-0.3,0.5-0.3,0.7l-0.1,3.9h0l-0.1,1.8
		c0,0.5-0.2,0.9-0.4,1.3c-0.3,0.4-0.7,0.7-1.1,0.9c-0.5,0.2-1,0.3-1.5,0.3c-0.6,0-1.1-0.2-1.6-0.4c-0.5-0.3-0.9-0.6-1.1-1.1
		c-0.3-0.6-0.4-1.2-0.4-1.9l0.2-4.9c0-0.6-0.4-1-1-1.1s-1,0.4-1.1,1l-0.2,4.9c-0.1,1,0.1,1.9,0.5,2.8c0.4,0.7,0.9,1.4,1.7,1.8
		c0.7,0.4,1.6,0.7,2.4,0.7c0.8,0,1.7-0.1,2.4-0.5l0,0c0.4-0.2,0.7-0.4,1-0.7l0,0l0,0l0,0.2c0,0.6,0.4,1,1,1.1c0.3,0,0.5-0.1,0.7-0.3
		c0.2-0.2,0.3-0.4,0.3-0.7l0.3-8.9C82.7,15.5,82.3,15,81.8,14.9z"/>
	<path class="st0" d="M66,24.4L66,24.4c0.5-0.2,0.9-0.5,1.3-0.9l0,0c0,0,0,0,0.1,0l-0.1,0.7c-0.1,0.6,0.4,1.1,0.9,1.1
		c0.3,0,0.5,0,0.7-0.2l0,0c0.2-0.2,0.3-0.4,0.4-0.7l0.5-4.4c0.1-1,0-2-0.4-2.9c-1.2-2.8-4.5-4-7.3-2.8c-0.9,0.4-1.6,1-2.2,1.8
		c-0.6,0.8-0.9,1.8-1,2.7c-0.1,1,0,2,0.4,2.9c0.3,0.9,0.9,1.6,1.6,2.2C62.3,25,64.3,25.2,66,24.4z M68,19.8L68,19.8L68,19.8L68,19.8
		z M61.1,21c-0.3-0.6-0.3-1.3-0.3-1.9c0.1-0.7,0.3-1.3,0.7-1.9c0.4-0.5,0.8-0.9,1.4-1.2c1.2-0.5,2.6-0.4,3.6,0.4
		c0.5,0.4,0.9,0.9,1.1,1.5c0.2,0.6,0.3,1.3,0.3,2c-0.1,0.7-0.3,1.3-0.7,1.9c-0.3,0.5-0.8,0.9-1.4,1.2c-1.2,0.5-2.6,0.4-3.6-0.4l0,0
		C61.7,22.1,61.3,21.5,61.1,21z"/>
	<path class="st0" d="M99.6,21.7c0.7-0.1,1.4-0.3,2.1-0.6l0,0c0.3-0.2,0.6-0.4,0.8-0.7l-0.2-2.2c0,0.4-0.2,0.8-0.6,1
		c-0.6,0.3-1.2,0.5-1.8,0.6c-0.8,0.2-1.6-0.1-2.1-0.7c-0.5-0.7-0.8-1.5-0.8-2.3l-0.2-1.5c-0.1-0.6-0.6-1-1.2-0.9
		c-0.3,0-0.5,0.2-0.7,0.3c-0.2,0.2-0.3,0.5-0.2,0.8l0.2,1.5c0.1,0.9,0.3,1.8,0.7,2.6c0.3,0.7,0.9,1.3,1.6,1.7
		C97.9,21.7,98.8,21.8,99.6,21.7z"/>
	<path class="st0" d="M12.2,25.6c0-0.8-0.3-1.6-0.7-2.3c-0.5-0.7-1.1-1.3-1.9-1.7C8.9,21.2,8.1,21,7.2,21c-0.4,0-0.9,0.1-1.3,0.2
		l-1.4,2.7l0,0c0.2-0.4,0.5-0.8,1-1c0.4-0.2,0.9-0.3,1.4-0.3c0.5,0,1,0.2,1.5,0.4c0.5,0.3,0.9,0.6,1.3,1.1c0.3,0.4,0.5,0.9,0.5,1.5
		c0,0.6-0.2,1.3-0.5,1.8l-2.3,4.4c-0.3,0.5-0.1,1.1,0.4,1.4c0.2,0.1,0.5,0.1,0.8,0.1c0.3-0.1,0.5-0.3,0.6-0.5l2.3-4.4
		C12,27.5,12.2,26.5,12.2,25.6z"/>
	<path class="st0" d="M164.3,31.6l-5.6-12.3c-0.1-0.3-0.3-0.5-0.6-0.6c-0.3-0.1-0.5-0.1-0.8,0c-0.3,0.1-0.5,0.3-0.6,0.6
		c-0.1,0.3-0.1,0.6,0,0.8l5.6,12.3c0.2,0.5,0.8,0.8,1.3,0.5c0,0,0,0,0,0c0.3-0.1,0.5-0.3,0.5-0.6l0,0
		C164.4,32.1,164.4,31.8,164.3,31.6z"/>
	<path class="st0" d="M18.3,26.6c-0.9,0.1-1.8,0.5-2.6,1.1C15,28.3,14.3,29.1,14,30l-3.6,8.4c-0.2,0.5,0,1.1,0.6,1.4
		c0.2,0.1,0.5,0.1,0.8,0c0.2-0.1,0.4-0.3,0.5-0.6l2.1-5c0.2,0.7,0.6,1.3,1,1.9c1.1,1.3,2.8,1.9,4.5,1.7c0.9-0.1,1.8-0.5,2.5-1.1
		c0.8-0.6,1.4-1.4,1.7-2.3c0.4-0.9,0.6-1.9,0.4-2.9C24.1,28.4,21.4,26.3,18.3,26.6z M22.3,33.6c-0.3,0.6-0.7,1.2-1.2,1.6
		c-0.5,0.4-1.1,0.6-1.7,0.7c-1.3,0.2-2.6-0.4-3.3-1.4c-0.4-0.5-0.6-1.1-0.6-1.7c-0.1-0.7,0.1-1.3,0.3-1.9c0.3-0.6,0.7-1.2,1.2-1.6
		c0.5-0.4,1.1-0.6,1.7-0.7c1.3-0.2,2.6,0.4,3.3,1.4c0.4,0.5,0.6,1.1,0.6,1.7C22.7,32.3,22.6,32.9,22.3,33.6z"/>
	<path class="st0" d="M154.7,27.1c-0.9,0-1.8,0.2-2.7,0.5l-3.1,1.4l-2.1-4.6c-0.1-0.2-0.3-0.4-0.5-0.5c-0.3-0.1-0.5-0.1-0.8,0.1
		c-0.2,0.1-0.5,0.3-0.6,0.5c-0.1,0.2-0.1,0.5,0,0.7l5.6,12.4c0.2,0.5,0.8,0.8,1.3,0.5c0,0,0,0,0,0l4-1.8c0.9-0.4,1.6-0.9,2.2-1.7
		c0.5-0.7,0.8-1.5,0.9-2.3c0.1-0.9-0.1-1.8-0.5-2.6C158,28.3,156.5,27.2,154.7,27.1z M157.1,32.3c-0.1,0.5-0.3,1-0.6,1.4
		c-0.4,0.4-0.8,0.8-1.3,1l-3.1,1.4l-2.4-5.4l3.1-1.4c0.5-0.2,1-0.4,1.6-0.4c0.5,0,1,0.1,1.4,0.4c0.5,0.3,0.8,0.8,1,1.3
		C157.1,31.2,157.2,31.8,157.1,32.3z"/>
	<path class="st0" d="M95.2,45.4L95.2,45.4c0-1-0.3-2-0.8-2.8c-1.6-2.6-5-3.4-7.6-1.8c-0.8,0.5-1.5,1.2-2,2.1
		c-0.5,0.9-0.7,1.9-0.7,2.9c0,1,0.3,2,0.7,2.8c0.4,0.8,1.1,1.5,1.9,1.9c1.6,0.9,3.7,0.9,5.2-0.1l0,0c0.5-0.3,0.9-0.7,1.2-1.1l0,0
		l0,0l0,0.7c0,0.6,0.5,1,1.1,1c0.3,0,0.5-0.1,0.7-0.3l0,0c0.2-0.2,0.3-0.5,0.3-0.7L95.2,45.4z M93.5,44.9L93.5,44.9L93.5,44.9
		L93.5,44.9z M91.6,48.8c-1.1,0.7-2.5,0.7-3.6,0.1l0,0c-0.5-0.3-1-0.8-1.3-1.3c-0.7-1.2-0.7-2.6-0.1-3.8c0.3-0.6,0.7-1,1.2-1.4
		c1.1-0.7,2.5-0.7,3.6-0.1c0.5,0.3,1,0.8,1.3,1.3c0.3,0.6,0.5,1.2,0.5,1.9c0,0.7-0.1,1.3-0.4,1.9C92.5,48,92.1,48.4,91.6,48.8z"/>
	<path class="st0" d="M81.4,48.1c-0.2,0.1-0.5,0.2-0.7,0.4c-0.3,0.3-0.7,0.5-1.2,0.6c-0.6,0.1-1.2,0.2-1.8,0.1
		c-0.6,0-1.2-0.1-1.7-0.4c-0.4-0.2-0.6-0.6-0.6-1c0-0.4,0.3-0.8,0.6-1c0.7-0.4,1.4-0.6,2.2-0.7c1-0.1,2-0.5,2.9-1.1
		c0.6-0.4,1-1.1,1-1.9c0-0.6-0.1-1.2-0.5-1.7c-0.4-0.5-0.9-0.9-1.4-1.1c-0.6-0.3-1.3-0.4-2-0.4c-0.8,0-1.6,0.1-2.4,0.3
		c-0.7,0.2-1.3,0.6-1.7,1.1C74,41.6,74,41.8,74,42.1c0.1,0.3,0.2,0.5,0.4,0.6c0.2,0.1,0.4,0.1,0.6,0.1c0.3-0.1,0.5-0.2,0.7-0.4
		c0.3-0.3,0.7-0.5,1.2-0.6c0.5-0.1,0.9-0.2,1.4-0.2c0.5,0,1,0.1,1.5,0.4c0.4,0.2,0.6,0.6,0.6,1c0,0.4-0.2,0.8-0.5,1
		c-0.6,0.3-1.2,0.5-1.9,0.6c-0.8,0.1-1.6,0.3-2.4,0.6c-0.6,0.2-1.1,0.6-1.5,1c-0.4,0.4-0.6,1-0.6,1.5c0,0.6,0.1,1.2,0.5,1.6
		c0.4,0.5,0.9,0.9,1.5,1.2c0.7,0.3,1.5,0.5,2.2,0.5c0.9,0,1.7-0.1,2.5-0.3l0,0c0.7-0.2,1.3-0.5,1.9-1c0.2-0.2,0.3-0.4,0.3-0.7
		c0-0.3-0.1-0.5-0.3-0.7C82,48.1,81.7,48,81.4,48.1z"/>
	<path class="st0" d="M47.8,38.5c-0.2-0.9-0.7-1.7-1.4-2.4c-1.5-1.4-3.6-1.9-5.5-1.4c-0.9,0.2-1.7,0.7-2.4,1.4
		c-0.7,0.7-1.2,1.6-1.4,2.6c-0.3,1-0.3,2-0.1,2.9c0.4,1.8,1.8,3.3,3.6,3.7c0.8,0.2,1.7,0.2,2.5-0.1c0.7-0.3,1.3-0.7,1.9-1.2l0-0.1
		v0.1c0,0,0,0,0,0l-0.3,1c-0.2,0.7-0.5,1.4-1,2c-0.4,0.5-1,0.8-1.6,1c-0.6,0.2-1.2,0.2-1.8,0c-0.6-0.2-1.2-0.4-1.7-0.8
		c-0.5-0.4-0.8-0.8-1-1.4c-0.1-0.2-0.3-0.4-0.5-0.5c-0.2-0.1-0.5-0.1-0.8,0c-0.2,0.1-0.4,0.2-0.5,0.5c-0.1,0.2-0.1,0.5,0,0.7
		c0.4,0.8,0.9,1.6,1.6,2.1c0.7,0.6,1.5,1,2.4,1.2c1,0.3,2,0.3,3,0c0.9-0.3,1.7-0.8,2.4-1.5c0.7-0.7,1.2-1.6,1.4-2.6l0.7-2.7h0
		l0.4-1.5l0,0c0,0,0,0,0,0l0.1-0.2c0,0,0,0,0,0C48,40.3,48,39.4,47.8,38.5z M44.9,42.8c-0.4,0.5-0.9,0.8-1.5,1
		c-1.3,0.3-2.6,0-3.6-0.9c-0.4-0.4-0.7-1-0.9-1.6c-0.2-0.7-0.1-1.3,0-2c0.2-0.7,0.5-1.3,0.9-1.8c0.4-0.5,1-0.8,1.6-1
		c1.3-0.3,2.6,0,3.6,0.9c0.4,0.4,0.7,1,0.9,1.6c0.1,0.7,0.1,1.3-0.1,2C45.7,41.7,45.4,42.3,44.9,42.8z"/>
	<path class="st0" d="M121.3,37.4c-0.1-0.5-0.5-0.9-1.1-0.8c0,0-0.1,0-0.1,0c-0.4,0.1-0.8,0.4-1,0.8l-3,6.6l-5.1-5.2
		c-0.3-0.3-0.7-0.5-1.2-0.4c-0.3,0-0.5,0.2-0.7,0.4c-0.2,0.2-0.2,0.5-0.2,0.8l1.6,8.8c0.1,0.6,0.7,0.9,1.2,0.8
		c0.3,0,0.5-0.2,0.7-0.4l0,0c0.1-0.2,0.2-0.5,0.1-0.8l-1.1-6.3h0v0l3.8,3.8c0.3,0.3,0.7,0.5,1.2,0.5c0.4-0.1,0.8-0.4,0.9-0.9
		l2.3-4.9l0,0c0,0,0,0,0,0l1.1,6.3c0.1,0.6,0.7,0.9,1.2,0.8c0.3-0.1,0.5-0.2,0.6-0.4c0.1-0.2,0.2-0.5,0.1-0.8L121.3,37.4z"/>
	<path class="st0" d="M36,38.2c0.3-0.9,0.4-1.9,0.3-2.8c-0.1-0.9-0.5-1.7-1-2.3c-0.6-0.7-1.4-1.2-2.3-1.5c-0.9-0.3-1.9-0.4-2.9-0.2
		c-0.9,0.2-1.8,0.6-2.4,1.2c-0.7,0.7-1.3,1.6-1.6,2.5c-0.3,0.9-0.4,2-0.2,3c0.2,0.9,0.6,1.8,1.3,2.5c1.2,1.2,2.8,1.9,4.5,1.9
		c0.6,0,1.3-0.1,1.9-0.3c0.2-0.1,0.4-0.2,0.5-0.5c0.1-0.3,0-0.5-0.1-0.7c-0.1-0.2-0.3-0.3-0.5-0.4c-0.2-0.1-0.5-0.1-0.7,0
		c-0.4,0.1-0.8,0.2-1.2,0.2c-0.4,0-0.9-0.1-1.3-0.2c-0.7-0.2-1.3-0.6-1.8-1.1c-0.4-0.5-0.7-1.1-0.9-1.7c-0.1-0.4-0.1-0.9,0-1.3l0,0
		l0,0c0,0,0,0,0,0l7.2,2.4c0.2,0.1,0.5,0.1,0.7,0C35.7,38.6,35.9,38.4,36,38.2z M28.1,34.8L28.1,34.8L28.1,34.8
		c0.2-0.3,0.4-0.7,0.7-0.9c0.4-0.4,1-0.8,1.6-0.9c0.7-0.1,1.4-0.1,2,0.2c1.1,0.3,2,1.3,2.1,2.5c0,0.4,0,0.9-0.1,1.3l0,0l-0.1,0.1
		c0,0,0-0.1,0-0.1L28.1,34.8C28.1,34.8,28.1,34.8,28.1,34.8z"/>
	<path class="st0" d="M67.1,39c-1-0.1-2,0-2.9,0.4c-0.9,0.4-1.6,1-2.2,1.8C61.4,42,61.1,43,61,44c-0.1,1,0,2,0.4,2.9
		c0.3,0.9,0.9,1.6,1.6,2.2c1.5,1.1,3.5,1.4,5.2,0.6h0c0.5-0.2,1-0.6,1.4-1l0,0h0l-0.1,0.7c-0.1,0.6,0.4,1.1,0.9,1.1
		c0.3,0,0.5,0,0.7-0.2l0,0c0.2-0.2,0.3-0.4,0.4-0.7l0.5-4.4l0,0l0,0l0,0l0,0l0,0c0.1-1,0-2-0.4-2.9C70.7,40.5,69,39.2,67.1,39z
		 M67.9,48c-1.2,0.5-2.6,0.4-3.6-0.4l0,0c-0.5-0.4-0.9-0.9-1.1-1.5c-0.3-0.6-0.3-1.3-0.3-2c0.1-0.7,0.3-1.3,0.7-1.9
		c0.4-0.5,0.8-0.9,1.4-1.2c1.2-0.5,2.6-0.4,3.6,0.4c0.5,0.4,0.9,0.9,1.1,1.5c0.5,1.3,0.3,2.7-0.4,3.8C68.9,47.3,68.5,47.7,67.9,48z"
		/>
	<path class="st0" d="M56.1,38.2c0-0.2-0.1-0.4-0.3-0.6c-0.1-0.1-0.3-0.2-0.5-0.3c-0.4-0.1-0.8,0.1-1.1,0.5h0l-5.7,8
		c-0.2,0.2-0.2,0.4-0.2,0.7c0.1,0.2,0.2,0.4,0.4,0.6c0.2,0.2,0.5,0.3,0.7,0.2c0.2,0,0.5-0.2,0.6-0.4l4.7-6.7h0l0,0l1.9,7.9
		c0.1,0.2,0.2,0.5,0.4,0.6c0.2,0.1,0.5,0.1,0.8,0c0.2-0.1,0.4-0.2,0.6-0.4c0.1-0.2,0.2-0.5,0.1-0.7L56.1,38.2z"/>
	<path class="st0" d="M142.8,26.3c-0.1-0.3-0.3-0.5-0.5-0.6c-0.2-0.1-0.5-0.1-0.8,0c-0.4,0.1-0.6,0.4-0.7,0.8l-1.8,13.1l0,0
		l-9.3-9.5c-0.4-0.4-1.1-0.4-1.5,0c-0.1,0.1-0.1,0.1-0.2,0.2c-0.1,0.2-0.2,0.5-0.1,0.8l4.2,12.9c0.2,0.5,0.8,0.8,1.3,0.7
		c0.3-0.1,0.5-0.3,0.6-0.5l0,0c0.1-0.2,0.1-0.5,0.1-0.8l-3-9.2l0,0l7.5,7.6c0.3,0.3,0.7,0.4,1.1,0.3c0.4-0.1,0.6-0.4,0.7-0.8
		l1.6-10.9v0l0,0l0,0v0l3.1,9.5c0.2,0.5,0.8,0.8,1.3,0.7c0.3-0.1,0.5-0.3,0.6-0.5c0.1-0.2,0.2-0.5,0.1-0.8L142.8,26.3z"/>
	<path class="st0" d="M104.9,39.7c-0.9-0.4-1.8-0.5-2.7-0.4c-1,0.1-1.9,0.4-2.7,1c-0.8,0.5-1.3,1.3-1.7,2.1
		c-0.4,0.9-0.5,1.9-0.4,2.9c0.1,1,0.4,2,1,2.8c0.6,0.8,1.3,1.4,2.2,1.8c1.6,0.6,3.3,0.6,4.9-0.1l0,0c0.6-0.3,1.1-0.6,1.6-1
		c0.2-0.2,0.3-0.4,0.3-0.6c0-0.3-0.2-0.5-0.4-0.6c-0.2-0.1-0.4-0.2-0.6-0.1c-0.2,0-0.5,0.1-0.6,0.3c-0.3,0.3-0.6,0.5-1,0.6
		c-0.4,0.2-0.8,0.3-1.2,0.4c-0.7,0.1-1.4,0-2.1-0.3c-0.6-0.3-1.1-0.7-1.5-1.2c-0.3-0.4-0.4-0.8-0.6-1.2l0,0v0l0,0c0,0,0,0,0,0
		l7.6-0.7c0.2,0,0.5-0.1,0.6-0.3c0.2-0.2,0.2-0.4,0.2-0.7c-0.1-1-0.4-1.9-0.9-2.7C106.3,40.7,105.6,40.1,104.9,39.7z M99.3,43.1
		c0.2-0.6,0.6-1.1,1.1-1.5c0.6-0.4,1.2-0.6,1.9-0.7c1.2-0.2,2.3,0.4,2.9,1.4c0.2,0.4,0.4,0.8,0.5,1.2l0,0l0,0c0,0,0,0,0,0
		c0,0,0,0,0,0l-6.6,0.6c0,0,0,0,0,0l0,0l0,0l0,0C99.1,43.9,99.2,43.5,99.3,43.1z"/>
	<path class="st0" d="M6,21.2L6,21.2L6.1,21c0.3-0.5,0-1.1-0.5-1.4c-0.2-0.1-0.5-0.1-0.7-0.1c-0.3,0.1-0.5,0.3-0.6,0.5L0.1,28
		c-0.3,0.5,0,1.1,0.5,1.4c0.2,0.1,0.5,0.1,0.8,0.1c0.3-0.1,0.5-0.3,0.6-0.5l2.6-5h0L6,21.2z"/>
	<path class="st0" d="M108.7,14L108.7,14C108.7,14,108.7,14,108.7,14c-0.1-0.5-0.6-0.9-1.1-0.8c0,0-0.1,0-0.1,0
		c-0.3,0-0.5,0.2-0.7,0.4c-0.2,0.2-0.2,0.5-0.1,0.8l1.7,8.7c0.1,0.6,0.7,0.9,1.2,0.8c0.3-0.1,0.5-0.2,0.6-0.4h0
		c0.1-0.2,0.2-0.5,0.1-0.8l-1.1-5.5c0,0,0,0,0,0L108.7,14z"/>
	<path class="st0" d="M102.5,20.4L102.5,20.4L102.5,20.4L102.5,20.4L102.5,20.4l0.3,3.2c0.1,0.6,0.6,1,1.2,0.9
		c0.3,0,0.5-0.2,0.7-0.4l0,0c0.2-0.2,0.2-0.5,0.2-0.8l-0.9-8.9c0-0.5-0.5-0.9-1-0.9c0,0-0.1,0-0.1,0c-0.3,0-0.5,0.1-0.7,0.4
		c-0.2,0.2-0.3,0.5-0.2,0.8l0.4,3.4c0,0,0,0,0,0L102.5,20.4z"/>
	<path class="st0" d="M48.4,15.8L48.4,15.8l0.6-3.3c0.1-0.5-0.2-1-0.7-1.2c0,0-0.1,0-0.1,0c-0.3-0.1-0.5,0-0.7,0.1
		c-0.2,0.2-0.4,0.4-0.4,0.7l-1.6,8.8c-0.1,0.3,0,0.5,0.1,0.8c0.1,0.2,0.4,0.4,0.6,0.4c0.3,0.1,0.6,0,0.8-0.1l0,0
		c0.2-0.2,0.4-0.4,0.4-0.7l0.7-3.7l0,0L48.4,15.8z"/>
</g>
</svg>
